<?xml version="1.0" encoding="iso-8859-1"?>
<!-- Generator: Adobe Illustrator 19.0.0, SVG Export Plug-In . SVG Version: 6.00 Build 0)  -->
<svg version="1.1" id="Layer_1" xmlns="http://www.w3.org/2000/svg" xmlns:xlink="http://www.w3.org/1999/xlink" x="0px" y="0px"
	 viewBox="0 0 512.004 512.004" style="enable-background:new 0 0 512.004 512.004;" xml:space="preserve">
<ellipse style="fill:#00A155;" cx="449.614" cy="387.035" rx="62.391" ry="73.062"/>
<path style="opacity:0.1;enable-background:new    ;" d="M461.183,448.527c-34.458,0-62.391-32.713-62.391-73.068
	c0-19.034,6.219-36.362,16.4-49.365c-16.855,13.082-27.975,35.485-27.975,60.939c0,40.355,27.934,73.068,62.392,73.068
	c18.205,0,34.585-9.137,45.991-23.702C485.733,444.057,473.907,448.527,461.183,448.527z"/>
<path style="opacity:0.15;fill:#FFFFFF;enable-background:new    ;" d="M496.883,339.379c-0.762-0.055-1.529-0.092-2.305-0.092
	c-17.479,0-31.648,14.17-31.648,31.648s14.169,31.648,31.648,31.648c6.15,0,11.887-1.76,16.745-4.796
	c0.442-3.51,0.678-7.099,0.678-10.752C512,368.819,506.296,352.175,496.883,339.379z"/>
<ellipse transform="matrix(-0.2499 -0.9683 0.9683 -0.2499 -18.9064 770.1995)" style="fill:#00A155;" cx="288.878" cy="392.423" rx="73.064" ry="62.394"/>
<path style="opacity:0.1;enable-background:new    ;" d="M316.565,453.718c-33.365,8.61-68.586-16.085-78.671-55.158
	c-6.462-25.04-1.018-49.893,12.495-66.793c-20.19,16.002-29.748,45.989-21.941,76.239c10.084,39.075,45.306,63.77,78.671,55.158
	c11.983-3.093,22.083-10.076,29.658-19.548C330.888,448.285,324.1,451.774,316.565,453.718z"/>
<path style="opacity:0.15;fill:#FFFFFF;enable-background:new    ;" d="M349.273,376.824c-5.036-19.514-16.342-35.44-30.554-45.424
	c-14.543,2.855-25.517,15.668-25.517,31.049c0,17.478,14.17,31.648,31.648,31.648c10.424,0,19.67-5.042,25.436-12.818
	C349.984,379.795,349.657,378.309,349.273,376.824z"/>
<path style="fill:#C39774;" d="M232.416,197.788c-76.867,0-125.525-34.373-152.81-63.209
	c-31.151-32.923-45.665-70.855-45.665-86.126c0-9.373-7.598-16.971-16.97-16.971S0,39.081,0,48.453
	c0,25.531,18.875,71.325,54.953,109.453c22.357,23.628,56.939,50.422,106.292,64.319c7.514,3.873,15.606,17.247,24.158,31.412
	c16.856,27.918,39.941,66.151,88.057,82.62c1.821,0.623,3.675,0.918,5.497,0.918c7.055,0,13.643-4.433,16.055-11.48
	c3.036-8.867-1.692-18.517-10.561-21.552c-36.432-12.469-54.262-41.998-69.992-68.05c-1.055-1.747-2.095-3.464-3.13-5.165
	c6.825,0.509,13.838,0.8,21.088,0.8c84.884,0,132.644,16.655,157.761,30.627c27.382,15.231,42.461,35.13,42.461,56.033
	c0,9.373,7.598,16.97,16.971,16.97s16.97-7.598,16.97-16.97C466.579,262.755,405.253,197.788,232.416,197.788z"/>
<path style="fill:#006539;" d="M73.065,223.021c0.094,53.641-20.444,97.162-31.026,97.181c-10.58,0.019-31.272-43.43-31.366-97.071
	s20.444-97.162,31.026-97.181C52.279,125.931,72.97,169.38,73.065,223.021z"/>
<path style="opacity:0.1;enable-background:new    ;" d="M42.039,320.201c-10.58,0.019-31.272-43.43-31.366-97.071
	s20.444-97.162,31.026-97.181L42.039,320.201z"/>
<path style="fill:#00A155;" d="M157.483,274.877c11.909,52.303,1.461,99.279-8.855,101.627
	c-10.317,2.349-40.071-35.474-51.98-87.777s-1.461-99.279,8.855-101.627C115.821,184.751,145.574,222.574,157.483,274.877z"/>
<path style="opacity:0.1;enable-background:new    ;" d="M148.627,376.504c-10.317,2.349-40.071-35.474-51.98-87.777
	s-1.461-99.279,8.855-101.627L148.627,376.504z"/>
<path style="fill:#006539;" d="M273.017,379.863c7.761,53.076-6.346,99.087-16.815,100.617c-10.469,1.53-37.159-38.513-44.92-91.591
	c-7.761-53.076,6.346-99.087,16.815-100.617C238.567,286.742,265.257,326.786,273.017,379.863z"/>
<path style="opacity:0.1;enable-background:new    ;" d="M256.203,480.48c-10.469,1.53-37.159-38.513-44.92-91.59
	c-7.761-53.076,6.346-99.087,16.815-100.617L256.203,480.48z"/>
<path style="fill:#006539;" d="M394.072,158.291c51.428-15.248,98.979-7.843,101.986,2.301c3.007,10.144-32.823,42.27-84.251,57.517
	c-51.428,15.248-98.979,7.844-101.986-2.301C306.812,205.664,342.644,173.538,394.072,158.291z"/>
<path style="opacity:0.1;enable-background:new    ;" d="M496.058,160.59c3.007,10.144-32.823,42.27-84.251,57.517
	s-98.979,7.843-101.986-2.301L496.058,160.59z"/>
<path style="fill:#00A155;" d="M238.95,118.571c58.995-18.076,113.766-10.056,117.332,1.581
	c3.565,11.636-37.312,48.962-96.307,67.037s-113.766,10.056-117.332-1.581C139.078,173.972,179.955,136.647,238.95,118.571z"/>
<path style="opacity:0.1;enable-background:new    ;" d="M356.281,120.152c3.565,11.636-37.312,48.962-96.307,67.037
	s-113.766,10.056-117.332-1.581L356.281,120.152z"/>
<path style="fill:#006539;" d="M129.375,53.524c-53.062-7.862-99.099,6.156-100.649,16.622
	c-1.551,10.466,38.443,37.233,91.504,45.095c53.062,7.862,99.098-6.156,100.649-16.622C222.43,88.153,182.437,61.387,129.375,53.524
	z"/>
<path style="opacity:0.1;enable-background:new    ;" d="M28.726,70.146c-1.551,10.466,38.443,37.233,91.504,45.095
	c53.062,7.862,99.098-6.156,100.649-16.622L28.726,70.146z"/>
<g>
</g>
<g>
</g>
<g>
</g>
<g>
</g>
<g>
</g>
<g>
</g>
<g>
</g>
<g>
</g>
<g>
</g>
<g>
</g>
<g>
</g>
<g>
</g>
<g>
</g>
<g>
</g>
<g>
</g>
</svg>
